<?xml version="1.0" standalone="no"?>
<!DOCTYPE svg PUBLIC "-//W3C//DTD SVG 20010904//EN"
 "http://www.w3.org/TR/2001/REC-SVG-20010904/DTD/svg10.dtd">
<svg version="1.0" xmlns="http://www.w3.org/2000/svg"
 width="330.000000pt" height="330.000000pt" viewBox="0 0 330.000000 330.000000"
 preserveAspectRatio="xMidYMid meet">
<metadata>
Created by potrace 1.14, written by Peter Selinger 2001-2017
</metadata>
<g transform="translate(0.000000,330.000000) scale(0.100000,-0.100000)"
fill="#000000" stroke="none">
<path d="M1470 3053 c-307 -35 -605 -181 -830 -406 -77 -77 -181 -207 -166
-207 3 0 30 6 60 14 93 25 250 30 336 12 142 -30 259 -91 298 -158 21 -36 7
-79 -30 -92 -32 -11 -48 -4 -127 54 -116 85 -311 108 -311 36 0 -45 117 -206
249 -341 185 -189 272 -309 306 -420 60 -201 -68 -390 -320 -472 -65 -21 -106
-27 -216 -31 -190 -6 -291 18 -426 104 -51 32 -55 33 -33 10 13 -15 47 -42 75
-61 38 -25 62 -52 94 -107 271 -455 773 -718 1298 -677 139 10 204 23 331 65
294 96 552 295 728 561 l54 83 203 2 c196 3 202 4 205 24 2 11 -52 202 -119
425 -67 222 -139 463 -159 534 -71 241 -130 419 -143 433 -11 11 -16 11 -25 0
-8 -10 13 -90 84 -323 149 -491 292 -967 299 -1003 l7 -32 -301 -2 c-166 -1
-311 -2 -323 -2 -21 -1 -27 19 -105 318 -45 175 -84 320 -86 323 -2 2 -86
-123 -187 -277 -100 -154 -186 -283 -190 -285 -5 -3 -85 104 -180 237 -94 134
-181 256 -193 272 l-23 29 -53 -224 c-99 -420 -95 -409 -171 -409 -87 0 -89
29 -21 242 27 84 72 234 100 334 68 244 250 837 260 847 5 5 124 -156 266
-357 141 -201 261 -368 265 -371 7 -5 134 177 429 618 l73 107 -50 63 c-150
188 -380 353 -600 432 -195 70 -439 100 -632 78z"/>
<path d="M554 2430 c-246 -64 -389 -239 -355 -433 23 -129 99 -247 306 -471
220 -240 254 -288 241 -340 -8 -33 -40 -46 -116 -46 -110 0 -237 55 -337 145
-62 55 -96 58 -101 11 -7 -60 157 -173 308 -213 93 -25 289 -22 393 6 217 57
347 193 347 361 0 125 -80 254 -303 491 -151 161 -247 288 -261 345 -9 35 19
75 60 86 68 20 217 -24 304 -88 70 -51 103 -55 108 -13 6 53 -126 135 -264
164 -96 20 -243 18 -330 -5z"/>
<path d="M1622 2092 c-56 -185 -122 -411 -147 -502 -25 -91 -66 -227 -90 -302
-53 -160 -56 -195 -21 -204 38 -9 64 4 75 39 6 18 38 147 71 287 77 325 79
332 92 328 5 -2 94 -122 197 -267 102 -145 191 -264 196 -264 6 -1 92 125 192
278 101 154 188 280 195 280 8 0 45 -124 99 -330 l86 -330 297 -3 c163 -1 296
0 296 2 0 23 -390 1308 -400 1319 -4 5 -117 -154 -250 -352 -133 -199 -246
-363 -250 -366 -5 -3 -124 159 -265 360 -141 201 -260 365 -263 365 -4 0 -53
-152 -110 -338z"/>
<path d="M241 1680 c-1 -112 17 -259 39 -326 29 -87 212 -184 346 -184 76 0
94 6 94 32 0 38 -40 92 -184 248 -71 77 -220 249 -268 311 l-27 34 0 -115z"/>
</g>
</svg>
